# xmcd CD database file
#
# Track frame offsets:
#	150
#	10998
#	30011
#	52269
#	68002
#	82419
#	99386
#	116812
#	124864
#	167136
#
# Disc length: 2344 seconds
#
# Revision: 0
# Processed by: cddbd v1.5.1PL0 Copyright (c) Steve Scherf et al.
# Submitted via: CDex 1.51
#
DISCID=8309260a
DTITLE=Triosk - Moment Returns
DYEAR=2004
DGENRE=Jazz
TTITLE0=The Streets Are Empty
TTITLE1=Chronosynclastic Infundibula
TTITLE2=Love Chariot
TTITLE3=Two - Twelve
TTITLE4=Tomorrow Today (Part 1)
TTITLE5=Tomorrow Today (Part 2)
TTITLE6=Re-Ignite
TTITLE7=Awake In The Deep
TTITLE8=I Am A Beautiful And Unique Snowflake
TTITLE9=Goodnight
EXTD=YEAR: 2004
EXTT0=
EXTT1=
EXTT2=
EXTT3=
EXTT4=
EXTT5=
EXTT6=
EXTT7=
EXTT8=
EXTT9=
PLAYORDER=
